# xmcd
#
# Track frame offsets:
#	150
#	11460
#	24420
#	35708
#	45676
#	56544
#	67937
#	79435
#	91915
#	104245
#	116133
#	128163
#
# Disc length: 1875 seconds
#
# Revision: 1
# Processed by: cddbd v1.5.2PL0 Copyright (c) Steve Scherf et al.
# Submitted via: audiograbber 1.83.01
#
DISCID=a107510c
DTITLE=Red Foley - Songs Everybody Knows
DYEAR=1965
DGENRE=Country
TTITLE0=Any Time
TTITLE1=I Really Don't Want To Know
TTITLE2=Why Should I Cry
TTITLE3=Please Help Me, I'm Falling
TTITLE4=Sugar Moon
TTITLE5=Wondering
TTITLE6=Shame On You
TTITLE7=Chained To A Memory
TTITLE8=I Don't Hurt Anymore
TTITLE9=No One To Cry To
TTITLE10=(Remember Me) I'm The One Who Loves You
TTITLE11=Raded Love
EXTD=
EXTT0=
EXTT1=
EXTT2=
EXTT3=
EXTT4=
EXTT5=
EXTT6=
EXTT7=
EXTT8=
EXTT9=
EXTT10=
EXTT11=
PLAYORDER=
